<mxfile host="app.diagrams.net" modified="2020-10-30T05:24:16.872Z" agent="5.0 (X11)" etag="gzUfV7vgYwjYHU7990Ew" version="13.6.6" type="github">
  <diagram id="2HXHx590MWkT4cgaT4zA" name="Page-1">
    <mxGraphModel dx="1718" dy="494" grid="1" gridSize="10" guides="1" tooltips="1" connect="1" arrows="1" fold="1" page="1" pageScale="1" pageWidth="850" pageHeight="1100" math="0" shadow="0">
      <root>
        <mxCell id="0" />
        <mxCell id="1" parent="0" />
        <mxCell id="gkA_GcAqDVq41M05_AUC-2" value="" style="rounded=0;whiteSpace=wrap;html=1;" vertex="1" parent="1">
          <mxGeometry x="-10" y="120" width="840" height="580" as="geometry" />
        </mxCell>
        <mxCell id="gkA_GcAqDVq41M05_AUC-30" style="edgeStyle=orthogonalEdgeStyle;rounded=0;orthogonalLoop=1;jettySize=auto;html=1;" edge="1" parent="1" source="gkA_GcAqDVq41M05_AUC-2" target="gkA_GcAqDVq41M05_AUC-2">
          <mxGeometry relative="1" as="geometry">
            <Array as="points" />
          </mxGeometry>
        </mxCell>
        <mxCell id="gkA_GcAqDVq41M05_AUC-51" style="edgeStyle=orthogonalEdgeStyle;rounded=0;orthogonalLoop=1;jettySize=auto;html=1;entryX=0.974;entryY=-0.08;entryDx=0;entryDy=0;entryPerimeter=0;" edge="1" parent="1" source="gkA_GcAqDVq41M05_AUC-3" target="gkA_GcAqDVq41M05_AUC-34">
          <mxGeometry relative="1" as="geometry" />
        </mxCell>
        <mxCell id="gkA_GcAqDVq41M05_AUC-3" value="NEW MESSAGE" style="rounded=0;whiteSpace=wrap;html=1;" vertex="1" parent="1">
          <mxGeometry x="660" y="50" width="150" height="30" as="geometry" />
        </mxCell>
        <mxCell id="gkA_GcAqDVq41M05_AUC-4" value="STATUS" style="text;html=1;strokeColor=none;fillColor=none;align=center;verticalAlign=middle;whiteSpace=wrap;rounded=0;" vertex="1" parent="1">
          <mxGeometry x="30" y="100" width="70" height="20" as="geometry" />
        </mxCell>
        <mxCell id="gkA_GcAqDVq41M05_AUC-5" value="PHONE NUMBER" style="text;html=1;strokeColor=none;fillColor=none;align=center;verticalAlign=middle;whiteSpace=wrap;rounded=0;" vertex="1" parent="1">
          <mxGeometry x="120" y="100" width="100" height="20" as="geometry" />
        </mxCell>
        <mxCell id="gkA_GcAqDVq41M05_AUC-7" value="MESSAGE" style="text;html=1;strokeColor=none;fillColor=none;align=center;verticalAlign=middle;whiteSpace=wrap;rounded=0;" vertex="1" parent="1">
          <mxGeometry x="270" y="100" width="40" height="20" as="geometry" />
        </mxCell>
        <mxCell id="gkA_GcAqDVq41M05_AUC-8" value="DATE" style="text;html=1;strokeColor=none;fillColor=none;align=center;verticalAlign=middle;whiteSpace=wrap;rounded=0;" vertex="1" parent="1">
          <mxGeometry x="360" y="100" width="40" height="20" as="geometry" />
        </mxCell>
        <mxCell id="gkA_GcAqDVq41M05_AUC-9" value="ACTION" style="text;html=1;strokeColor=none;fillColor=none;align=center;verticalAlign=middle;whiteSpace=wrap;rounded=0;" vertex="1" parent="1">
          <mxGeometry x="470" y="100" width="40" height="20" as="geometry" />
        </mxCell>
        <mxCell id="gkA_GcAqDVq41M05_AUC-10" value="Approved" style="text;html=1;strokeColor=none;fillColor=none;align=center;verticalAlign=middle;whiteSpace=wrap;rounded=0;" vertex="1" parent="1">
          <mxGeometry x="40" y="140" width="40" height="20" as="geometry" />
        </mxCell>
        <mxCell id="gkA_GcAqDVq41M05_AUC-11" value="Rejected" style="text;html=1;strokeColor=none;fillColor=none;align=center;verticalAlign=middle;whiteSpace=wrap;rounded=0;" vertex="1" parent="1">
          <mxGeometry x="40" y="170" width="40" height="20" as="geometry" />
        </mxCell>
        <mxCell id="gkA_GcAqDVq41M05_AUC-13" value="Sent" style="text;html=1;strokeColor=none;fillColor=none;align=center;verticalAlign=middle;whiteSpace=wrap;rounded=0;" vertex="1" parent="1">
          <mxGeometry x="30" y="210" width="40" height="20" as="geometry" />
        </mxCell>
        <mxCell id="gkA_GcAqDVq41M05_AUC-14" value="0711111111" style="text;html=1;strokeColor=none;fillColor=none;align=center;verticalAlign=middle;whiteSpace=wrap;rounded=0;" vertex="1" parent="1">
          <mxGeometry x="130" y="140" width="40" height="20" as="geometry" />
        </mxCell>
        <mxCell id="gkA_GcAqDVq41M05_AUC-15" value="072222222" style="text;html=1;strokeColor=none;fillColor=none;align=center;verticalAlign=middle;whiteSpace=wrap;rounded=0;" vertex="1" parent="1">
          <mxGeometry x="120" y="170" width="40" height="20" as="geometry" />
        </mxCell>
        <mxCell id="gkA_GcAqDVq41M05_AUC-17" value="07333333" style="text;html=1;strokeColor=none;fillColor=none;align=center;verticalAlign=middle;whiteSpace=wrap;rounded=0;" vertex="1" parent="1">
          <mxGeometry x="110" y="210" width="60" height="20" as="geometry" />
        </mxCell>
        <mxCell id="gkA_GcAqDVq41M05_AUC-18" value="welcome" style="text;html=1;strokeColor=none;fillColor=none;align=center;verticalAlign=middle;whiteSpace=wrap;rounded=0;" vertex="1" parent="1">
          <mxGeometry x="260" y="140" width="40" height="20" as="geometry" />
        </mxCell>
        <mxCell id="gkA_GcAqDVq41M05_AUC-19" value="welcome" style="text;html=1;strokeColor=none;fillColor=none;align=center;verticalAlign=middle;whiteSpace=wrap;rounded=0;" vertex="1" parent="1">
          <mxGeometry x="260" y="180" width="40" height="20" as="geometry" />
        </mxCell>
        <mxCell id="gkA_GcAqDVq41M05_AUC-20" value="welcome" style="text;html=1;strokeColor=none;fillColor=none;align=center;verticalAlign=middle;whiteSpace=wrap;rounded=0;" vertex="1" parent="1">
          <mxGeometry x="260" y="210" width="40" height="20" as="geometry" />
        </mxCell>
        <mxCell id="gkA_GcAqDVq41M05_AUC-21" value="2020-01-09" style="text;html=1;strokeColor=none;fillColor=none;align=center;verticalAlign=middle;whiteSpace=wrap;rounded=0;" vertex="1" parent="1">
          <mxGeometry x="340" y="140" width="90" height="20" as="geometry" />
        </mxCell>
        <mxCell id="gkA_GcAqDVq41M05_AUC-22" value="2020-09-10" style="text;html=1;strokeColor=none;fillColor=none;align=center;verticalAlign=middle;whiteSpace=wrap;rounded=0;" vertex="1" parent="1">
          <mxGeometry x="350" y="170" width="70" height="20" as="geometry" />
        </mxCell>
        <mxCell id="gkA_GcAqDVq41M05_AUC-23" value="2020-09-09" style="text;html=1;strokeColor=none;fillColor=none;align=center;verticalAlign=middle;whiteSpace=wrap;rounded=0;" vertex="1" parent="1">
          <mxGeometry x="360" y="210" width="40" height="20" as="geometry" />
        </mxCell>
        <mxCell id="gkA_GcAqDVq41M05_AUC-24" value="" style="rounded=1;whiteSpace=wrap;html=1;" vertex="1" parent="1">
          <mxGeometry x="460" y="140" width="140" height="30" as="geometry" />
        </mxCell>
        <mxCell id="gkA_GcAqDVq41M05_AUC-25" value="send/cancel/delete" style="text;html=1;strokeColor=none;fillColor=none;align=center;verticalAlign=middle;whiteSpace=wrap;rounded=0;" vertex="1" parent="1">
          <mxGeometry x="490" y="145" width="40" height="20" as="geometry" />
        </mxCell>
        <mxCell id="gkA_GcAqDVq41M05_AUC-26" value="" style="endArrow=classic;startArrow=classic;html=1;" edge="1" parent="1" source="gkA_GcAqDVq41M05_AUC-2" target="gkA_GcAqDVq41M05_AUC-2">
          <mxGeometry width="50" height="50" relative="1" as="geometry">
            <mxPoint x="690" y="120" as="sourcePoint" />
            <mxPoint x="740" y="70" as="targetPoint" />
          </mxGeometry>
        </mxCell>
        <mxCell id="gkA_GcAqDVq41M05_AUC-32" value="" style="rounded=0;whiteSpace=wrap;html=1;" vertex="1" parent="1">
          <mxGeometry x="110" y="290" width="540" height="370" as="geometry" />
        </mxCell>
        <mxCell id="gkA_GcAqDVq41M05_AUC-34" value="" style="rounded=0;whiteSpace=wrap;html=1;" vertex="1" parent="1">
          <mxGeometry x="110" y="290" width="540" height="50" as="geometry" />
        </mxCell>
        <mxCell id="gkA_GcAqDVq41M05_AUC-35" value="SEND MESSAGE" style="text;html=1;strokeColor=none;fillColor=none;align=center;verticalAlign=middle;whiteSpace=wrap;rounded=0;" vertex="1" parent="1">
          <mxGeometry x="130" y="305" width="130" height="20" as="geometry" />
        </mxCell>
        <mxCell id="gkA_GcAqDVq41M05_AUC-36" value="X" style="text;html=1;strokeColor=none;fillColor=none;align=center;verticalAlign=middle;whiteSpace=wrap;rounded=0;" vertex="1" parent="1">
          <mxGeometry x="600" y="300" width="40" height="20" as="geometry" />
        </mxCell>
        <mxCell id="gkA_GcAqDVq41M05_AUC-37" value="FROM" style="text;html=1;strokeColor=none;fillColor=none;align=center;verticalAlign=middle;whiteSpace=wrap;rounded=0;" vertex="1" parent="1">
          <mxGeometry x="130" y="350" width="40" height="20" as="geometry" />
        </mxCell>
        <mxCell id="gkA_GcAqDVq41M05_AUC-38" value="" style="rounded=1;whiteSpace=wrap;html=1;" vertex="1" parent="1">
          <mxGeometry x="160" y="370" width="120" height="25" as="geometry" />
        </mxCell>
        <mxCell id="gkA_GcAqDVq41M05_AUC-39" value="TO" style="text;html=1;strokeColor=none;fillColor=none;align=center;verticalAlign=middle;whiteSpace=wrap;rounded=0;" vertex="1" parent="1">
          <mxGeometry x="130" y="410" width="40" height="20" as="geometry" />
        </mxCell>
        <mxCell id="gkA_GcAqDVq41M05_AUC-40" value="group/station/individual farmer" style="rounded=1;whiteSpace=wrap;html=1;" vertex="1" parent="1">
          <mxGeometry x="160" y="430" width="130" height="30" as="geometry" />
        </mxCell>
        <mxCell id="gkA_GcAqDVq41M05_AUC-41" value="" style="ellipse;whiteSpace=wrap;html=1;aspect=fixed;" vertex="1" parent="1">
          <mxGeometry x="330" y="440" width="10" height="10" as="geometry" />
        </mxCell>
        <mxCell id="gkA_GcAqDVq41M05_AUC-42" value="GROUP" style="text;html=1;strokeColor=none;fillColor=none;align=center;verticalAlign=middle;whiteSpace=wrap;rounded=0;" vertex="1" parent="1">
          <mxGeometry x="360" y="435" width="40" height="20" as="geometry" />
        </mxCell>
        <mxCell id="gkA_GcAqDVq41M05_AUC-43" value="" style="ellipse;whiteSpace=wrap;html=1;aspect=fixed;" vertex="1" parent="1">
          <mxGeometry x="425" y="440" width="10" height="10" as="geometry" />
        </mxCell>
        <mxCell id="gkA_GcAqDVq41M05_AUC-44" value="STATION" style="text;html=1;strokeColor=none;fillColor=none;align=center;verticalAlign=middle;whiteSpace=wrap;rounded=0;" vertex="1" parent="1">
          <mxGeometry x="450" y="435" width="40" height="20" as="geometry" />
        </mxCell>
        <mxCell id="gkA_GcAqDVq41M05_AUC-46" value="" style="rounded=0;whiteSpace=wrap;html=1;" vertex="1" parent="1">
          <mxGeometry x="120" y="520" width="470" height="90" as="geometry" />
        </mxCell>
        <mxCell id="gkA_GcAqDVq41M05_AUC-47" value="MESSAGE" style="text;html=1;strokeColor=none;fillColor=none;align=center;verticalAlign=middle;whiteSpace=wrap;rounded=0;" vertex="1" parent="1">
          <mxGeometry x="150" y="500" width="40" height="20" as="geometry" />
        </mxCell>
        <mxCell id="gkA_GcAqDVq41M05_AUC-49" value="SEND" style="rounded=1;whiteSpace=wrap;html=1;" vertex="1" parent="1">
          <mxGeometry x="530" y="620" width="90" height="30" as="geometry" />
        </mxCell>
        <mxCell id="gkA_GcAqDVq41M05_AUC-52" value="click" style="text;html=1;strokeColor=none;fillColor=none;align=center;verticalAlign=middle;whiteSpace=wrap;rounded=0;" vertex="1" parent="1">
          <mxGeometry x="640" y="130" width="40" height="25" as="geometry" />
        </mxCell>
        <mxCell id="gkA_GcAqDVq41M05_AUC-53" value="show modal" style="text;html=1;strokeColor=none;fillColor=none;align=center;verticalAlign=middle;whiteSpace=wrap;rounded=0;" vertex="1" parent="1">
          <mxGeometry x="630" y="210" width="90" height="20" as="geometry" />
        </mxCell>
        <mxCell id="gkA_GcAqDVq41M05_AUC-54" value="failed" style="text;html=1;strokeColor=none;fillColor=none;align=center;verticalAlign=middle;whiteSpace=wrap;rounded=0;" vertex="1" parent="1">
          <mxGeometry x="30" y="240" width="40" height="20" as="geometry" />
        </mxCell>
        <mxCell id="gkA_GcAqDVq41M05_AUC-55" value="071247777" style="text;html=1;strokeColor=none;fillColor=none;align=center;verticalAlign=middle;whiteSpace=wrap;rounded=0;" vertex="1" parent="1">
          <mxGeometry x="120" y="240" width="40" height="20" as="geometry" />
        </mxCell>
        <mxCell id="gkA_GcAqDVq41M05_AUC-56" value="welcome" style="text;html=1;strokeColor=none;fillColor=none;align=center;verticalAlign=middle;whiteSpace=wrap;rounded=0;" vertex="1" parent="1">
          <mxGeometry x="260" y="240" width="40" height="20" as="geometry" />
        </mxCell>
        <mxCell id="gkA_GcAqDVq41M05_AUC-57" value="2020-09-01" style="text;html=1;strokeColor=none;fillColor=none;align=center;verticalAlign=middle;whiteSpace=wrap;rounded=0;" vertex="1" parent="1">
          <mxGeometry x="360" y="240" width="40" height="20" as="geometry" />
        </mxCell>
        <mxCell id="gkA_GcAqDVq41M05_AUC-61" style="edgeStyle=orthogonalEdgeStyle;rounded=0;orthogonalLoop=1;jettySize=auto;html=1;exitX=0.5;exitY=1;exitDx=0;exitDy=0;" edge="1" parent="1" source="gkA_GcAqDVq41M05_AUC-53" target="gkA_GcAqDVq41M05_AUC-53">
          <mxGeometry relative="1" as="geometry" />
        </mxCell>
      </root>
    </mxGraphModel>
  </diagram>
</mxfile>
